<svg xmlns="http://www.w3.org/2000/svg" width="1000" height="520" viewBox="0 0 1000 520" role="img" aria-labelledby="title desc">
<title id="title">Structural audio anomaly workflow</title>
<desc id="desc">Audio segments become time-frequency features, latent embeddings, anomaly scores and operating-state labels.</desc>
<rect width="1000" height="520" fill="#0f172a"/>
<g font-family="Inter,Segoe UI,sans-serif" text-anchor="middle">
<text x="500" y="72" fill="#e5e7eb" font-size="34" font-weight="800">Structural audio anomaly detection</text>
<text x="500" y="112" fill="#aab6c8" font-size="20">Signal features, embeddings and anomaly scores for structural-test monitoring</text>
</g>
<g transform="translate(90 175)">
<rect width="820" height="240" rx="24" fill="#172033" stroke="#334155"/>
<g stroke="#38bdf8" stroke-width="4" fill="none" stroke-linecap="round">
<path d="M50 122 C63 55, 75 190, 88 122 S112 55, 125 122 S150 190, 163 122 S188 55, 201 122 S226 190, 239 122"/>
</g>
<g transform="translate(315 45)">
<rect width="175" height="150" fill="#111c33" stroke="#334155" rx="14"/>
<g fill="#38bdf8" opacity=".9"><rect x="20" y="26" width="24" height="102"/><rect x="55" y="50" width="24" height="78"/><rect x="90" y="18" width="24" height="110"/><rect x="125" y="74" width="24" height="54"/></g>
</g>
<g transform="translate(585 58)">
<circle cx="58" cy="58" r="50" fill="none" stroke="#34d399" stroke-width="7"/><path d="M58 10a48 48 0 0 1 43 70" fill="none" stroke="#fbbf24" stroke-width="7" stroke-linecap="round"/>
<text x="58" y="66" fill="#e5e7eb" text-anchor="middle" font-size="22" font-family="Inter,Segoe UI,sans-serif" font-weight="700">score</text>
</g>
<g stroke="#a78bfa" stroke-width="5" stroke-linecap="round"><path d="M255 122h45"/><path d="M505 122h55"/></g>
<g font-family="Inter,Segoe UI,sans-serif" fill="#aab6c8" font-size="17" text-anchor="middle"><text x="145" y="212">audio</text><text x="402" y="212">features</text><text x="645" y="212">anomaly</text></g>
</g>
</svg>
