<svg xmlns="http://www.w3.org/2000/svg" width="1000" height="520" viewBox="0 0 1000 520" role="img" aria-labelledby="title desc">
<title id="title">Hydraulic digital twin workflow</title>
<desc id="desc">Synthetic sensor data flow through validation, anomaly detection, classification and reporting.</desc>
<defs><linearGradient id="g" x1="0" y1="0" x2="1" y2="1"><stop stop-color="#38bdf8"/><stop offset="1" stop-color="#a78bfa"/></linearGradient></defs>
<rect width="1000" height="520" fill="#0f172a"/>
<g fill="none" stroke="#334155" stroke-width="2"><path d="M90 260h820"/><path d="M260 150v220M500 150v220M740 150v220"/></g>
<g font-family="Inter,Segoe UI,sans-serif" text-anchor="middle">
<g><rect x="55" y="190" width="170" height="140" rx="22" fill="#172033" stroke="#38bdf8"/><text x="140" y="245" fill="#e5e7eb" font-size="23" font-weight="700">Synthetic</text><text x="140" y="275" fill="#aab6c8" font-size="17">sensor data</text></g>
<g><rect x="300" y="190" width="170" height="140" rx="22" fill="#172033" stroke="#34d399"/><text x="385" y="245" fill="#e5e7eb" font-size="23" font-weight="700">Validation</text><text x="385" y="275" fill="#aab6c8" font-size="17">QA / features</text></g>
<g><rect x="545" y="190" width="170" height="140" rx="22" fill="#172033" stroke="#fbbf24"/><text x="630" y="245" fill="#e5e7eb" font-size="23" font-weight="700">Detection</text><text x="630" y="275" fill="#aab6c8" font-size="17">fault states</text></g>
<g><rect x="790" y="190" width="170" height="140" rx="22" fill="#172033" stroke="#a78bfa"/><text x="875" y="245" fill="#e5e7eb" font-size="23" font-weight="700">Reports</text><text x="875" y="275" fill="#aab6c8" font-size="17">HTML / Markdown</text></g>
<text x="500" y="72" fill="#e5e7eb" font-size="34" font-weight="800">Hydraulic digital twin demo</text>
<text x="500" y="112" fill="#aab6c8" font-size="20">Confidentiality-safe engineering monitoring workflow</text>
</g>
<g stroke="url(#g)" stroke-width="5" fill="none" stroke-linecap="round"><path d="M230 260h55"/><path d="M475 260h55"/><path d="M720 260h55"/></g>
</svg>
